<svg width="97" height="24" viewBox="0 0 97 24" fill="none" xmlns="http://www.w3.org/2000/svg">
<g clip-path="url(#clip0_1_1125)">
<path d="M22.0056 1.38388C22.1455 1.43316 22.2674 1.5233 22.3556 1.64263C22.4437 1.76196 22.4941 1.90499 22.5001 2.05323C22.5761 2.84487 22.6085 3.64009 22.5971 4.43529C22.5888 4.80009 22.5804 5.16488 22.5561 5.52968C22.4189 5.47278 22.2892 5.41589 22.1512 5.36234C21.8031 5.22512 21.4626 5.09544 21.1137 4.97329C21.122 4.78754 21.1304 4.60932 21.1304 4.42274C21.138 3.8312 21.122 3.23129 21.0735 2.62386C20.5062 2.44564 19.9147 2.28332 19.3165 2.13774C18.5634 1.95953 17.8104 1.81311 17.0474 1.70769C16.6181 1.65163 16.2048 1.60226 15.8082 1.5621C15.4116 1.52194 14.9891 1.49767 14.5599 1.47843C14.2252 1.47006 13.9114 1.46253 13.5717 1.46253L13.0773 1.47006C12.9309 1.47006 12.761 1.47843 12.5828 1.47843C12.1536 1.49516 11.7402 1.52696 11.3345 1.5621C10.9287 1.59724 10.5245 1.65163 10.0953 1.70769C9.34229 1.81311 8.58006 1.95869 7.8262 2.13774C7.22629 2.28332 6.64312 2.44564 6.06915 2.62386C5.97042 3.95576 6.00576 5.29421 6.1746 6.61905C6.26419 7.36018 6.39406 8.09588 6.56365 8.82289C6.6607 9.23621 6.77449 9.64954 6.89832 10.0461L6.9067 10.0788L6.91422 10.1114L6.92259 10.144L6.93848 10.1758L6.94686 10.2084L6.95519 10.2411L6.96357 10.2737L6.99535 10.3624V10.3708L7.00373 10.4026L7.06064 10.5565L7.06815 10.5891L7.11755 10.7188L7.12506 10.7431C7.37533 11.4687 7.66498 12.1801 7.99272 12.8741L8.00861 12.8984L8.01699 12.9235L8.0245 12.9394L8.04121 12.9637L8.04877 12.9879L8.05715 13.0122L8.07304 13.0281C8.1952 13.2791 8.32405 13.5301 8.45457 13.7811C8.55163 13.9434 8.64028 14.1158 8.72981 14.2672C8.83523 14.4541 8.93259 14.6161 9.02183 14.7533C9.2971 15.1993 9.58827 15.6369 9.89701 16.0586C10.2057 16.4803 10.5203 16.8852 10.8692 17.2902C10.9992 17.4441 11.1451 17.6062 11.3068 17.7763C11.4608 17.9436 11.6064 18.111 11.7444 18.2541C12.1009 18.6189 12.4732 18.9678 12.8463 19.3074L13.0003 19.4371C12.8949 19.5208 12.7895 19.6045 12.6765 19.6881C12.3845 19.9065 12.085 20.1174 11.7846 20.3282C10.1656 18.8768 8.77268 17.1915 7.65216 15.3281V15.3198L7.64379 15.3123L7.63545 15.3039C7.57103 15.1985 7.5141 15.093 7.45721 15.0043C7.36015 14.8261 7.25473 14.6471 7.16604 14.4772C6.8983 13.9911 6.65485 13.4891 6.42058 12.962C6.1863 12.4349 5.98299 11.917 5.79641 11.3982C5.53578 10.6649 5.31399 9.91841 5.13204 9.16175C4.58156 6.83376 4.41737 4.43113 4.64596 2.04989C4.65282 1.90143 4.70442 1.75851 4.79402 1.63994C4.88362 1.52137 5.00703 1.43269 5.14798 1.38556C5.91773 1.12618 6.70421 0.89944 7.49822 0.704491C8.27635 0.526276 9.07789 0.369817 9.89701 0.251007C10.3154 0.194112 10.7555 0.145585 11.2173 0.105424C11.6633 0.0644259 12.1009 0.0326311 12.5301 0.0158973C12.6924 0.0158973 12.8647 0.00753245 13.0488 0.00753245L13.5759 0L14.1022 0.00753245C14.2888 0.00753245 14.467 0.0158973 14.621 0.0158973C15.0585 0.0326311 15.4961 0.0644259 15.9421 0.105424C16.4039 0.145585 16.8415 0.194112 17.2548 0.251007C18.0807 0.372327 18.8831 0.526276 19.6612 0.704491C20.4477 0.89944 21.2333 1.12284 22.0114 1.38556L22.0056 1.38388ZM17.2565 16.0594C17.5485 15.6461 17.8422 15.2227 18.1074 14.7868C18.199 14.6224 18.3491 14.4986 18.5279 14.44C18.7067 14.3813 18.9011 14.3923 19.0722 14.4705C20.4803 15.1436 21.7585 16.0599 22.8481 17.1772C22.9756 17.2948 23.0576 17.4534 23.0798 17.6254C23.102 17.7974 23.0629 17.9716 22.9695 18.1177C22.7427 18.4741 22.4917 18.8464 22.2407 19.2112C21.9897 19.576 21.7136 19.9325 21.4467 20.273C21.2517 20.524 21.0409 20.7834 20.8141 21.0427C20.62 21.2695 20.4008 21.5205 20.1582 21.7882C19.8176 22.1614 19.4888 22.5011 19.1542 22.8333H19.1458C18.822 23.1579 18.4764 23.4742 18.1167 23.7896C18.0105 23.893 17.8758 23.9622 17.73 23.9883C17.5841 24.0144 17.4338 23.9962 17.2984 23.936C16.2318 23.4464 15.2049 22.8746 14.2269 22.2258C14.3566 22.1288 14.4862 22.0317 14.6159 21.9263C14.8912 21.7071 15.1673 21.4887 15.4259 21.2569C16.0867 21.677 16.7715 22.0583 17.4766 22.399C17.6949 22.1965 17.9058 21.9941 18.125 21.7832C18.4647 21.4485 18.781 21.1272 19.073 20.8026C19.2671 20.6001 19.4696 20.3575 19.6971 20.0981C19.8913 19.863 20.0938 19.6195 20.2887 19.361C20.5556 19.0364 20.7991 18.7042 21.0342 18.3637C21.1639 18.1963 21.2852 18.0072 21.4065 17.829C21.0418 17.4793 20.6516 17.1572 20.2393 16.8651C19.8488 16.5819 19.4402 16.3245 19.0161 16.0946C18.8295 16.3782 18.6354 16.6543 18.4404 16.9212C18.1007 17.3914 17.7519 17.829 17.3954 18.2507C17.2331 18.4365 17.0792 18.6071 16.9336 18.7695C16.8683 18.8531 16.7955 18.9234 16.7227 19.0037L16.7144 19.0121L16.7068 19.0205L16.6985 19.028L16.6901 19.0364L16.6826 19.0447L16.6742 19.0531L16.6658 19.0606L16.6499 19.0774V19.0849C15.8762 19.8999 15.0449 20.6582 14.1624 21.354C12.8289 22.3779 11.3823 23.2454 9.851 23.9394C9.71181 24.0018 9.55672 24.0197 9.40696 23.9907C9.2572 23.9616 9.12007 23.887 9.01431 23.777C8.65705 23.4691 8.32489 23.1529 7.99272 22.8366C7.65804 22.5128 7.32839 22.1672 6.98869 21.7916C6.73769 21.5238 6.51927 21.2728 6.32433 21.0461C6.10595 20.7867 5.89512 20.5273 5.69264 20.2763C5.4249 19.9283 5.16553 19.5794 4.90616 19.2146C4.64679 18.8498 4.40415 18.4774 4.17741 18.121C3.99836 17.8374 3.81258 17.5353 3.626 17.2216C3.45866 16.9137 3.28547 16.6058 3.12399 16.3012C2.91398 15.9122 2.71904 15.5147 2.53246 15.1181C2.34588 14.7216 2.18441 14.3233 2.01456 13.91C1.70666 13.1569 1.43892 12.3872 1.20381 11.6007C0.9687 10.8142 0.774588 10.021 0.618127 9.21865C0.587669 9.07086 0.604103 8.91725 0.66515 8.77925C0.726198 8.64126 0.828799 8.52576 0.958645 8.44889C1.90207 7.77829 2.89628 7.18217 3.93224 6.66591C3.9724 7.05497 4.02176 7.43566 4.08618 7.81636C4.10208 7.94604 4.12634 8.07572 4.15061 8.20541C3.46287 8.56511 2.79735 8.96577 2.15763 9.40523C2.28731 10.0127 2.44126 10.6042 2.61111 11.1798C2.83032 11.9253 3.08972 12.6541 3.37336 13.3552C3.52731 13.7359 3.68878 14.1166 3.867 14.4973C4.04521 14.878 4.22425 15.2503 4.41836 15.6076C4.57232 15.908 4.73465 16.1933 4.89697 16.4828C5.05845 16.7505 5.23164 17.0342 5.41488 17.3337C5.64245 17.6901 5.86918 18.039 6.10429 18.3628C6.3394 18.6866 6.59042 19.0322 6.84979 19.3602C7.05227 19.6187 7.24639 19.8622 7.44887 20.0973C7.66808 20.3567 7.87892 20.5993 8.06466 20.8018C8.36504 21.1264 8.68048 21.4502 9.02102 21.7824C9.23186 21.9932 9.45107 22.1957 9.66107 22.3906C10.8804 21.8041 12.037 21.0954 13.1132 20.2755C14.6906 19.0793 16.0855 17.6599 17.254 16.0619L17.2565 16.0594ZM26.179 8.44555C26.3084 8.52324 26.411 8.63854 26.4732 8.77607C26.5354 8.9136 26.5542 9.06682 26.5271 9.2153C26.3648 10.0177 26.1706 10.8117 25.9355 11.5974C25.7004 12.383 25.4335 13.1536 25.1331 13.9066C25.1027 13.9817 25.0587 14.0507 25.0034 14.1099C24.8763 14.2573 24.6963 14.3487 24.5023 14.3644C24.3083 14.3801 24.1159 14.3187 23.9668 14.1936C23.4192 13.717 22.8397 13.2784 22.2323 12.8808C21.6355 12.4904 21.0126 12.1413 20.3682 11.8358C20.1991 11.7596 20.0647 11.6229 19.9913 11.4526C19.9179 11.2823 19.9109 11.0907 19.9716 10.9154C20.214 10.2335 20.4168 9.53821 20.579 8.83293C20.6518 8.55766 20.7087 8.28155 20.7656 7.99624C20.9522 8.06903 21.1304 8.14266 21.317 8.22299C21.5923 8.34514 21.8675 8.47399 22.1428 8.60451C22.1026 8.79862 22.0591 8.98521 22.0131 9.17179C21.8843 9.7148 21.7379 10.2595 21.568 10.7925C22.07 11.0518 22.5645 11.343 23.0422 11.6509C23.407 11.8944 23.7718 12.1529 24.1207 12.4207C24.2663 12.0157 24.4044 11.6024 24.5257 11.1815C24.7039 10.6059 24.8495 10.0102 24.9875 9.4069C23.9241 8.6798 22.7923 8.05825 21.6082 7.55112C20.8788 7.2359 20.1321 6.96242 19.3717 6.732C18.6768 6.52215 17.9706 6.35175 17.2565 6.22162C16.7545 6.13293 16.2358 6.06014 15.7086 6.00325C15.1815 5.94635 14.6636 5.91372 14.1449 5.89782L13.8537 5.88946H13.2865L13.0028 5.89782C12.4841 5.91372 11.9569 5.94635 11.4382 6.00325C10.9194 6.06014 10.3932 6.13293 9.88279 6.22162C9.17746 6.35131 8.47294 6.52952 7.76761 6.732C7.49987 6.81567 7.23298 6.89935 6.96524 6.99138C6.94098 6.83743 6.91671 6.69184 6.90082 6.53789C6.85229 6.18983 6.81717 5.8493 6.79541 5.5004C8.98173 4.77756 11.2699 4.41032 13.5726 4.4127C16.4209 4.41661 19.2415 4.97237 21.8784 6.04927C23.3992 6.68294 24.8428 7.48771 26.1815 8.44805L26.179 8.44555ZM12.6782 14.8554C12.5569 14.7015 12.4514 14.5634 12.3544 14.4421C11.5833 13.3865 10.9286 12.2506 10.4016 11.0543C10.3288 10.8929 10.2551 10.7305 10.1907 10.5682C10.1263 10.4059 10.0769 10.2687 10.0234 10.1147C10.0002 10.0612 9.98387 10.005 9.97483 9.9474C9.95757 9.85211 9.95944 9.75433 9.98035 9.65977C10.0013 9.56521 10.0408 9.47576 10.0966 9.39664C10.1525 9.31751 10.2235 9.25029 10.3056 9.19891C10.3877 9.14752 10.4792 9.11299 10.5747 9.09732C10.7287 9.06469 10.9094 9.04043 11.0935 9.01365L11.6197 8.94003C11.9444 8.90823 12.2682 8.88397 12.6004 8.85636C12.9325 8.82874 13.2697 8.8321 13.5734 8.8321C13.8771 8.8321 14.2051 8.83962 14.5532 8.85636C14.8879 8.88062 15.21 8.90488 15.5263 8.94003L16.0525 9.01365C16.2475 9.03792 16.4173 9.06218 16.5797 9.09732C16.621 9.10398 16.6616 9.11463 16.701 9.12912C16.8843 9.19531 17.0341 9.33132 17.1177 9.50748C17.2012 9.68364 17.2117 9.88567 17.1469 10.0696C17.0817 10.2369 17.0172 10.4093 16.952 10.5716C16.8867 10.7339 16.8223 10.8962 16.7495 11.0577C16.4862 11.654 16.1913 12.2357 15.8659 12.8005C15.5391 13.3693 15.1792 13.9186 14.7883 14.4454C14.6667 14.6066 14.5615 14.7444 14.4729 14.8588C14.3348 15.0261 14.2294 15.1667 14.1382 15.2637C14.1096 15.3 14.0768 15.3325 14.0403 15.3608C13.9667 15.4228 13.8815 15.4695 13.7897 15.4982C13.6978 15.527 13.6012 15.5371 13.5054 15.5281C13.4096 15.519 13.3165 15.491 13.2317 15.4456C13.1468 15.4002 13.0719 15.3384 13.0112 15.2637C12.8899 15.1257 12.7844 14.996 12.6765 14.8588L12.6782 14.8554Z" fill="#4D5F7A"/>
</g>
<path d="M34.3977 10.5336C34.9161 9.72723 35.8281 9.32402 37.1337 9.32402V11.0376C36.9801 11.0088 36.8409 10.9944 36.7161 10.9944C36.0153 10.9944 35.4681 11.2008 35.0745 11.6136C34.6809 12.0168 34.4841 12.6024 34.4841 13.3704V17.1H32.6841V9.41042H34.3977V10.5336Z" fill="#4D5F7A"/>
<path d="M45.8192 13.2984C45.8192 13.4232 45.8096 13.6008 45.7904 13.8312H39.7568C39.8624 14.3976 40.136 14.8488 40.5776 15.1848C41.0288 15.5112 41.5856 15.6744 42.248 15.6744C43.0928 15.6744 43.7888 15.396 44.336 14.8392L45.3008 15.948C44.9552 16.3608 44.5184 16.6728 43.9904 16.884C43.4624 17.0952 42.8672 17.2008 42.2048 17.2008C41.36 17.2008 40.616 17.0328 39.9728 16.6968C39.3296 16.3608 38.8304 15.8952 38.4752 15.3C38.1296 14.6952 37.9568 14.0136 37.9568 13.2552C37.9568 12.5064 38.1248 11.8344 38.4608 11.2392C38.8064 10.6344 39.2816 10.164 39.8864 9.82803C40.4912 9.49203 41.1728 9.32402 41.9312 9.32402C42.68 9.32402 43.3472 9.49203 43.9328 9.82803C44.528 10.1544 44.9888 10.62 45.3152 11.2248C45.6512 11.82 45.8192 12.5112 45.8192 13.2984ZM41.9312 10.764C41.3552 10.764 40.8656 10.9368 40.4624 11.2824C40.0688 11.6184 39.8288 12.0696 39.7424 12.636H44.1056C44.0288 12.0792 43.7936 11.628 43.4 11.2824C43.0064 10.9368 42.5168 10.764 41.9312 10.764Z" fill="#4D5F7A"/>
<path d="M49.9242 17.2008C49.3002 17.2008 48.6906 17.1192 48.0954 16.956C47.5002 16.7928 47.025 16.5864 46.6698 16.3368L47.361 14.9688C47.7066 15.1992 48.1194 15.3864 48.5994 15.5304C49.089 15.6648 49.569 15.732 50.0394 15.732C51.1146 15.732 51.6522 15.4488 51.6522 14.8824C51.6522 14.6136 51.513 14.4264 51.2346 14.3208C50.9658 14.2152 50.529 14.1144 49.9242 14.0184C49.2906 13.9224 48.7722 13.812 48.369 13.6872C47.9754 13.5624 47.6298 13.3464 47.3322 13.0392C47.0442 12.7224 46.9002 12.2856 46.9002 11.7288C46.9002 10.9992 47.2026 10.4184 47.8074 9.98643C48.4218 9.54483 49.2474 9.32402 50.2842 9.32402C50.8122 9.32402 51.3402 9.38642 51.8682 9.51123C52.3962 9.62643 52.8282 9.78483 53.1642 9.98643L52.473 11.3544C51.8202 10.9704 51.0858 10.7784 50.2698 10.7784C49.7418 10.7784 49.3386 10.86 49.0602 11.0232C48.7914 11.1768 48.657 11.3832 48.657 11.6424C48.657 11.9304 48.801 12.1368 49.089 12.2616C49.3866 12.3768 49.8426 12.4872 50.457 12.5928C51.0714 12.6888 51.5754 12.7992 51.969 12.924C52.3626 13.0488 52.6986 13.26 52.977 13.5576C53.265 13.8552 53.409 14.2776 53.409 14.8248C53.409 15.5448 53.097 16.1208 52.473 16.5528C51.849 16.9848 50.9994 17.2008 49.9242 17.2008Z" fill="#4D5F7A"/>
<path d="M62.188 13.2984C62.188 13.4232 62.1784 13.6008 62.1592 13.8312H56.1256C56.2312 14.3976 56.5048 14.8488 56.9464 15.1848C57.3976 15.5112 57.9544 15.6744 58.6168 15.6744C59.4616 15.6744 60.1576 15.396 60.7048 14.8392L61.6696 15.948C61.324 16.3608 60.8872 16.6728 60.3592 16.884C59.8312 17.0952 59.236 17.2008 58.5736 17.2008C57.7288 17.2008 56.9848 17.0328 56.3416 16.6968C55.6984 16.3608 55.1992 15.8952 54.844 15.3C54.4984 14.6952 54.3256 14.0136 54.3256 13.2552C54.3256 12.5064 54.4936 11.8344 54.8296 11.2392C55.1752 10.6344 55.6504 10.164 56.2552 9.82803C56.86 9.49203 57.5416 9.32402 58.3 9.32402C59.0488 9.32402 59.716 9.49203 60.3016 9.82803C60.8968 10.1544 61.3576 10.62 61.684 11.2248C62.02 11.82 62.188 12.5112 62.188 13.2984ZM58.3 10.764C57.724 10.764 57.2344 10.9368 56.8312 11.2824C56.4376 11.6184 56.1976 12.0696 56.1112 12.636H60.4744C60.3976 12.0792 60.1624 11.628 59.7688 11.2824C59.3752 10.9368 58.8856 10.764 58.3 10.764Z" fill="#4D5F7A"/>
<path d="M67.445 17.2008C66.6482 17.2008 65.933 17.0328 65.2994 16.6968C64.6658 16.3608 64.1714 15.8952 63.8162 15.3C63.461 14.6952 63.2834 14.0136 63.2834 13.2552C63.2834 12.4968 63.461 11.82 63.8162 11.2248C64.1714 10.6296 64.661 10.164 65.285 9.82803C65.9186 9.49203 66.6386 9.32402 67.445 9.32402C68.2034 9.32402 68.8658 9.47762 69.4322 9.78483C70.0082 10.092 70.4402 10.5336 70.7282 11.1096L69.3458 11.916C69.125 11.5608 68.8466 11.2968 68.5106 11.124C68.1842 10.9416 67.8242 10.8504 67.4306 10.8504C66.7586 10.8504 66.2018 11.0712 65.7602 11.5128C65.3186 11.9448 65.0978 12.5256 65.0978 13.2552C65.0978 13.9848 65.3138 14.5704 65.7458 15.012C66.1874 15.444 66.749 15.66 67.4306 15.66C67.8242 15.66 68.1842 15.5736 68.5106 15.4008C68.8466 15.2184 69.125 14.9496 69.3458 14.5944L70.7282 15.4008C70.4306 15.9768 69.9938 16.4232 69.4178 16.74C68.8514 17.0472 68.1938 17.2008 67.445 17.2008Z" fill="#4D5F7A"/>
<path d="M79.729 9.41042V17.1H78.0154V16.1208C77.7274 16.4664 77.3674 16.7352 76.9354 16.9272C76.5034 17.1096 76.0378 17.2008 75.5386 17.2008C74.5114 17.2008 73.7002 16.9176 73.105 16.3512C72.5194 15.7752 72.2266 14.9256 72.2266 13.8024V9.41042H74.0266V13.5576C74.0266 14.2488 74.1802 14.7672 74.4874 15.1128C74.8042 15.4488 75.2506 15.6168 75.8266 15.6168C76.4698 15.6168 76.9786 15.42 77.353 15.0264C77.737 14.6232 77.929 14.0472 77.929 13.2984V9.41042H79.729Z" fill="#4D5F7A"/>
<path d="M83.7994 10.5336C84.3178 9.72723 85.2298 9.32402 86.5354 9.32402V11.0376C86.3818 11.0088 86.2426 10.9944 86.1178 10.9944C85.417 10.9944 84.8698 11.2008 84.4762 11.6136C84.0826 12.0168 83.8858 12.6024 83.8858 13.3704V17.1H82.0858V9.41042H83.7994V10.5336Z" fill="#4D5F7A"/>
<path d="M92.3248 9.32402C93.0736 9.32402 93.7408 9.48722 94.3264 9.81363C94.9216 10.14 95.3872 10.6008 95.7232 11.196C96.0592 11.7912 96.2272 12.4776 96.2272 13.2552C96.2272 14.0328 96.0592 14.724 95.7232 15.3288C95.3872 15.924 94.9216 16.3848 94.3264 16.7112C93.7408 17.0376 93.0736 17.2008 92.3248 17.2008C91.7968 17.2008 91.312 17.1096 90.8704 16.9272C90.4384 16.7448 90.0736 16.4712 89.776 16.1064V17.1H88.0624V6.41522H89.8624V10.3464C90.1696 10.0104 90.5296 9.75603 90.9424 9.58323C91.3648 9.41042 91.8256 9.32402 92.3248 9.32402ZM92.1232 15.66C92.7856 15.66 93.328 15.4392 93.7504 14.9976C94.1824 14.556 94.3984 13.9752 94.3984 13.2552C94.3984 12.5352 94.1824 11.9544 93.7504 11.5128C93.328 11.0712 92.7856 10.8504 92.1232 10.8504C91.6912 10.8504 91.3024 10.9512 90.9568 11.1528C90.6112 11.3448 90.3376 11.6232 90.136 11.988C89.9344 12.3528 89.8336 12.7752 89.8336 13.2552C89.8336 13.7352 89.9344 14.1576 90.136 14.5224C90.3376 14.8872 90.6112 15.1704 90.9568 15.372C91.3024 15.564 91.6912 15.66 92.1232 15.66Z" fill="#4D5F7A"/>
<defs>
<clipPath id="clip0_1_1125">
<rect width="26.4001" height="24.0001" fill="white" transform="translate(0.303223)"/>
</clipPath>
</defs>
</svg>
