<svg width="92" height="24" viewBox="0 0 92 24" fill="none" xmlns="http://www.w3.org/2000/svg">
<path d="M37.5274 14.5855C37.5274 15.7258 37.2597 16.5637 36.7245 17.0989C36.1892 17.6342 35.363 17.9019 34.2459 17.9019C33.1405 17.9019 31.9652 17.8437 30.7201 17.7273V15.3709C31.6277 15.4291 32.5586 15.4582 33.5128 15.4582C33.7805 15.4582 33.9899 15.3826 34.1412 15.2313C34.3041 15.0684 34.3856 14.8531 34.3856 14.5855V7.95273H32.1165V5.50909H37.5274V14.5855Z" fill="#4D5F7A"/>
<path d="M45.3813 17.7273H39.0976V15.2837H40.6685V7.95273H39.0976V5.50909H45.3813V7.95273H43.8104V15.2837H45.3813V17.7273Z" fill="#4D5F7A"/>
<path d="M57.4236 17.4655C54.7007 17.7564 52.1988 17.9019 49.9181 17.9019C48.7777 17.9019 47.9399 17.6342 47.4046 17.0989C46.8694 16.5637 46.6017 15.7258 46.6017 14.5855V9.00001C46.6017 7.77819 46.8752 6.89382 47.4221 6.34691C47.9806 5.78837 48.8708 5.50909 50.0926 5.50909H56.3763V7.95273H50.7908C50.0926 7.95273 49.7436 8.30183 49.7436 9.00001V14.5855C49.7436 14.8531 49.8192 15.0684 49.9705 15.2313C50.1334 15.3826 50.3486 15.4582 50.6163 15.4582C51.9545 15.4582 53.1763 15.4291 54.2817 15.3709V12.84H52.0126V10.7455H57.4236V17.4655Z" fill="#4D5F7A"/>
<path d="M69.6452 17.4655C66.9223 17.7564 64.4205 17.9019 62.1397 17.9019C60.9994 17.9019 60.1615 17.6342 59.6263 17.0989C59.091 16.5637 58.8233 15.7258 58.8233 14.5855V9.00001C58.8233 7.77819 59.0968 6.89382 59.6437 6.34691C60.2023 5.78837 61.0924 5.50909 62.3143 5.50909H68.5979V7.95273H63.0124C62.3143 7.95273 61.9652 8.30183 61.9652 9.00001V14.5855C61.9652 14.8531 62.0408 15.0684 62.1921 15.2313C62.355 15.3826 62.5703 15.4582 62.8379 15.4582C64.1761 15.4582 65.3979 15.4291 66.5034 15.3709V12.84H64.2343V10.7455H69.6452V17.4655Z" fill="#4D5F7A"/>
<path d="M74.5359 15.2837H80.9068V17.7273H71.3941V5.50909H74.5359V15.2837Z" fill="#4D5F7A"/>
<path d="M91.82 17.7273H82.1327V5.50909H91.82V7.95273H85.2746V10.3091H90.4237V12.7527H85.2746V15.2837H91.82V17.7273Z" fill="#4D5F7A"/>
<path fill-rule="evenodd" clip-rule="evenodd" d="M1.32815 4.1651C1.68248 4.16663 2.02183 4.30808 2.27238 4.55862C2.52293 4.80917 2.66439 5.14854 2.66592 5.50287C2.67531 5.85027 2.81993 6.18029 3.06896 6.42269C3.318 6.66509 3.65179 6.80073 3.99932 6.80073C4.34685 6.80073 4.68064 6.66509 4.92968 6.42269C5.17871 6.18029 5.32333 5.85027 5.33272 5.50287V1.33779C5.33425 0.983463 5.47566 0.644084 5.72621 0.393535C5.97676 0.142987 6.31616 0.00155564 6.67049 1.95312e-05C7.02345 0.00334565 7.36086 0.145631 7.60963 0.396041C7.8584 0.646452 7.99846 0.984813 7.99947 1.33779V10.0824C7.99465 10.2606 8.0256 10.4378 8.09044 10.6038C8.15529 10.7698 8.25275 10.9211 8.37704 11.0488C8.50134 11.1765 8.64993 11.278 8.8141 11.3473C8.97827 11.4166 9.15467 11.4523 9.33286 11.4523C9.51106 11.4523 9.68746 11.4166 9.85163 11.3473C10.0158 11.278 10.1644 11.1765 10.2887 11.0488C10.413 10.9211 10.5104 10.7698 10.5753 10.6038C10.6401 10.4378 10.6711 10.2606 10.6663 10.0824V5.50287C10.6678 5.14854 10.8093 4.80917 11.0598 4.55862C11.3104 4.30808 11.6497 4.16663 12.004 4.1651C12.357 4.16842 12.6944 4.31072 12.9432 4.56113C13.1919 4.81154 13.3321 5.14989 13.3331 5.50287V10.0824C13.3331 10.4359 13.4735 10.775 13.7235 11.0249C13.9734 11.2749 14.3124 11.4153 14.6659 11.4153C15.0194 11.4153 15.3585 11.2749 15.6085 11.0249C15.8584 10.775 15.9989 10.4359 15.9989 10.0824V1.33779C16.0004 0.983295 16.142 0.643767 16.3927 0.393191C16.6435 0.142615 16.9831 0.00129967 17.3376 1.95312e-05C17.6909 0.0018215 18.0292 0.143645 18.2781 0.394414C18.527 0.645183 18.6664 0.984436 18.6657 1.33779V5.50287C18.675 5.85027 18.8196 6.18029 19.0686 6.42269C19.3177 6.66509 19.6515 6.80073 19.999 6.80073C20.3465 6.80073 20.6804 6.66509 20.9294 6.42269C21.1784 6.18029 21.323 5.85027 21.3324 5.50287C21.3339 5.14837 21.4755 4.80886 21.7263 4.55828C21.977 4.3077 22.3167 4.16638 22.6712 4.1651C23.0245 4.1669 23.3627 4.30873 23.6117 4.5595C23.8606 4.81027 24 5.14951 23.9992 5.50287V18.507C23.9979 18.8588 23.8576 19.1958 23.6088 19.4446C23.36 19.6934 23.023 19.8337 22.6712 19.835C22.3182 19.8342 21.9797 19.6944 21.7291 19.4458C21.4785 19.1973 21.336 18.8599 21.3324 18.507C21.3372 18.3288 21.3063 18.1515 21.2415 17.9856C21.1766 17.8196 21.0792 17.6683 20.9549 17.5406C20.8306 17.4129 20.6819 17.3114 20.5178 17.2421C20.3536 17.1728 20.1772 17.1371 19.999 17.1371C19.8208 17.1371 19.6445 17.1728 19.4803 17.2421C19.3161 17.3114 19.1675 17.4129 19.0432 17.5406C18.9189 17.6683 18.8214 17.8196 18.7566 17.9856C18.6917 18.1515 18.6608 18.3288 18.6657 18.507V22.6672C18.6659 22.8417 18.6317 23.0145 18.5651 23.1758C18.4984 23.3371 18.4007 23.4837 18.2773 23.6072C18.1539 23.7306 18.0074 23.8285 17.8462 23.8953C17.6849 23.962 17.5121 23.9963 17.3376 23.9962C16.9841 23.9967 16.6449 23.8571 16.3942 23.608C16.1434 23.3589 16.0016 23.0206 15.9998 22.6672V13.9109C15.9998 13.5574 15.8594 13.2183 15.6095 12.9684C15.3595 12.7184 15.0204 12.578 14.6669 12.578C14.3134 12.578 13.9744 12.7184 13.7244 12.9684C13.4744 13.2183 13.334 13.5574 13.334 13.9109V18.5002C13.331 18.8516 13.1899 19.1878 12.9413 19.4362C12.6927 19.6846 12.3565 19.8254 12.005 19.8282C11.6522 19.8272 11.314 19.6872 11.0636 19.4387C10.8132 19.1901 10.6708 18.8529 10.6673 18.5002V13.9109C10.6579 13.5635 10.5133 13.2334 10.2642 12.991C10.0152 12.7486 9.68139 12.613 9.33386 12.613C8.98633 12.613 8.65249 12.7486 8.40346 12.991C8.15442 13.2334 8.00985 13.5635 8.00046 13.9109V22.6672C7.99944 23.0193 7.85908 23.3568 7.61006 23.6058C7.36104 23.8548 7.0236 23.9952 6.67144 23.9962C6.31792 23.997 5.97853 23.8575 5.72773 23.6083C5.47693 23.3592 5.33521 23.0207 5.33367 22.6672V18.5031C5.33848 18.3249 5.30754 18.1476 5.24269 17.9817C5.17785 17.8157 5.08043 17.6644 4.95614 17.5367C4.83184 17.409 4.68321 17.3075 4.51903 17.2382C4.35486 17.1689 4.17847 17.1332 4.00027 17.1332C3.82207 17.1332 3.64567 17.1689 3.4815 17.2382C3.31733 17.3075 3.16874 17.409 3.04445 17.5367C2.92016 17.6644 2.82269 17.8157 2.75785 17.9817C2.693 18.1476 2.66206 18.3249 2.66687 18.5031C2.66329 18.8559 2.52091 19.193 2.27053 19.4416C2.02015 19.6902 1.68191 19.8301 1.3291 19.8311C0.977658 19.8283 0.641414 19.6875 0.392807 19.4391C0.144199 19.1907 0.00317375 18.8545 0.00012207 18.5031V5.50287C0.00113026 5.14989 0.141185 4.81154 0.389956 4.56113C0.638728 4.31072 0.976141 4.16842 1.3291 4.1651H1.32815ZM5.33272 9.33813C5.33753 9.16 5.30659 8.9827 5.24174 8.81672C5.1769 8.65074 5.07943 8.49944 4.95514 8.37174C4.83085 8.24404 4.68226 8.14255 4.51809 8.07325C4.35391 8.00394 4.17752 7.96824 3.99932 7.96824C3.82112 7.96824 3.64472 8.00394 3.48055 8.07325C3.31638 8.14255 3.16774 8.24404 3.04345 8.37174C2.91916 8.49944 2.82174 8.65074 2.7569 8.81672C2.69205 8.9827 2.66111 9.16 2.66592 9.33813V14.6717C2.67531 15.0191 2.81993 15.3491 3.06896 15.5915C3.318 15.8339 3.65179 15.9696 3.99932 15.9696C4.34685 15.9696 4.68064 15.8339 4.92968 15.5915C5.17871 15.3491 5.32333 15.0191 5.33272 14.6717V9.33813ZM18.6618 14.6717V9.33813C18.6569 9.16 18.6878 8.9827 18.7527 8.81672C18.8175 8.65074 18.915 8.49944 19.0393 8.37174C19.1636 8.24404 19.3122 8.14255 19.4764 8.07325C19.6406 8.00394 19.817 7.96824 19.9952 7.96824C20.1734 7.96824 20.3497 8.00394 20.5139 8.07325C20.678 8.14255 20.8267 8.24404 20.951 8.37174C21.0753 8.49944 21.1727 8.65074 21.2376 8.81672C21.3024 8.9827 21.3333 9.16 21.3285 9.33813V14.6717C21.3191 15.0191 21.1746 15.3491 20.9255 15.5915C20.6765 15.8339 20.3427 15.9696 19.9952 15.9696C19.6476 15.9696 19.3138 15.8339 19.0648 15.5915C18.8157 15.3491 18.6711 15.0191 18.6618 14.6717Z" fill="#4D5F7A"/>
</svg>
