<svg width="93" height="24" viewBox="0 0 93 24" fill="none" xmlns="http://www.w3.org/2000/svg">
<g clip-path="url(#clip0_1_1124)">
<path fill-rule="evenodd" clip-rule="evenodd" d="M14.1747 23.5427C16.7721 23.2395 19.1912 22.0685 21.0404 20.2193C22.8895 18.3702 24.0605 15.9511 24.3637 13.3537H19.9983C19.723 14.7952 19.0203 16.1206 17.9817 17.1575C16.9432 18.1944 15.6167 18.8949 14.1747 19.1679V23.5427Z" fill="#4D5F7A"/>
<path fill-rule="evenodd" clip-rule="evenodd" d="M18.0524 1.62306L18.0799 1.60507C20.9046 -0.0179738 23.1886 -0.495247 24.252 0.569108C27.2604 3.57657 18.7768 12.9313 16.2636 15.4445C14.7523 16.9603 13.1506 18.3833 11.4674 19.7057V23.5399C10.1142 23.3862 8.79931 22.9918 7.58497 22.3751L7.5575 22.3931C4.7328 24.0162 2.44977 24.4934 1.38541 23.4347C-0.0728671 21.9765 1.63348 18.6196 2.44026 17.2342C1.82745 16.0183 1.43322 14.7042 1.27555 13.3518H5.65036C5.84167 14.3672 6.24635 15.3304 6.83759 16.1778C7.42884 17.0251 8.19321 17.7373 9.08018 18.2673C8.57547 18.6338 8.06222 18.9823 7.53004 19.309C6.75071 19.8042 5.94394 20.272 5.10874 20.6934C4.4551 20.1145 3.87045 19.4622 3.36639 18.7493C2.48574 20.4462 2.1922 21.6933 2.65998 22.1583C4.66843 24.1468 13.7022 15.8489 15.1879 14.3631C16.7697 12.7834 18.2493 11.1046 19.6177 9.33679C19.1667 8.18443 18.4302 7.16569 17.4772 6.37637C16.5242 5.58704 15.3861 5.05307 14.17 4.82465V0.449793C15.5235 0.602074 16.8386 0.996605 18.0524 1.61453V1.62306ZM22.271 5.24603C23.1516 3.54912 23.4452 2.30201 22.9774 1.83707C22.5096 1.37212 21.2729 1.67231 19.5751 2.55295C20.6188 3.2937 21.5302 4.20511 22.271 5.24888V5.24603Z" fill="#4D5F7A"/>
<path fill-rule="evenodd" clip-rule="evenodd" d="M11.4693 0.458318C8.87178 0.761769 6.45269 1.93293 4.60356 3.78223C2.75443 5.63153 1.58348 8.05075 1.28027 10.6483H5.65513C5.92675 9.20659 6.62694 7.88035 7.66422 6.84289C8.70151 5.80544 10.0276 5.10501 11.4693 4.83315V0.458318Z" fill="#4D5F7A"/>
</g>
<path d="M44.627 14.7784C44.627 15.2841 44.5304 15.7614 44.3372 16.2103C44.1497 16.6535 43.8884 17.0427 43.5531 17.3779C43.2236 17.7074 42.8344 17.9688 42.3855 18.162C41.9423 18.3495 41.4679 18.4432 40.9622 18.4432C40.5077 18.4432 40.0702 18.3637 39.6497 18.2046C39.235 18.0455 38.8599 17.8125 38.5247 17.5057C38.1895 17.8125 37.8117 18.0455 37.3912 18.2046C36.9707 18.3637 36.5332 18.4432 36.0787 18.4432C35.573 18.4432 35.0957 18.3495 34.6469 18.162C34.2037 17.9688 33.8145 17.7074 33.4793 17.3779C33.1497 17.0427 32.8883 16.6535 32.6952 16.2103C32.5077 15.7614 32.4139 15.2841 32.4139 14.7784V6.05115H34.8599V14.7784C34.8599 14.9489 34.8912 15.1108 34.9537 15.2642C35.0162 15.412 35.1014 15.5427 35.2094 15.6563C35.323 15.7642 35.4537 15.8495 35.6014 15.912C35.7491 15.9745 35.9082 16.0057 36.0787 16.0057C36.2491 16.0057 36.4082 15.9745 36.556 15.912C36.7037 15.8495 36.8315 15.7642 36.9395 15.6563C37.0531 15.5427 37.1412 15.412 37.2037 15.2642C37.2662 15.1108 37.2974 14.9489 37.2974 14.7784V6.05115H39.7435V14.7784C39.7435 14.9489 39.7747 15.1108 39.8372 15.2642C39.8997 15.412 39.985 15.5427 40.0929 15.6563C40.2065 15.7642 40.3372 15.8495 40.485 15.912C40.6327 15.9745 40.7918 16.0057 40.9622 16.0057C41.1327 16.0057 41.2918 15.9745 41.4395 15.912C41.5872 15.8495 41.7151 15.7642 41.823 15.6563C41.9367 15.5427 42.0247 15.412 42.0872 15.2642C42.1554 15.1108 42.1895 14.9489 42.1895 14.7784V6.05115H44.627V14.7784Z" fill="#4D5F7A"/>
<path d="M49.3145 6.66479C49.3145 6.8807 49.2719 7.0824 49.1867 7.2699C49.1071 7.45741 48.9963 7.62218 48.8543 7.76422C48.7122 7.90059 48.5446 8.01138 48.3514 8.09661C48.1639 8.17616 47.9622 8.21593 47.7463 8.21593C47.5304 8.21593 47.3259 8.17616 47.1327 8.09661C46.9452 8.01138 46.7804 7.90059 46.6384 7.76422C46.502 7.62218 46.3912 7.45741 46.306 7.2699C46.2264 7.0824 46.1867 6.8807 46.1867 6.66479C46.1867 6.45456 46.2264 6.2557 46.306 6.0682C46.3912 5.87501 46.502 5.71024 46.6384 5.57388C46.7804 5.43183 46.9452 5.32104 47.1327 5.24149C47.3259 5.15626 47.5304 5.11365 47.7463 5.11365C47.9622 5.11365 48.1639 5.15626 48.3514 5.24149C48.5446 5.32104 48.7122 5.43183 48.8543 5.57388C48.9963 5.71024 49.1071 5.87501 49.1867 6.0682C49.2719 6.2557 49.3145 6.45456 49.3145 6.66479ZM48.914 18.2728H46.5702V9.14491H48.914V18.2728Z" fill="#4D5F7A"/>
<path d="M55.7066 18.2728H50.3884V15.9546H55.7066C55.8657 15.9546 56.002 15.8978 56.1157 15.7841C56.2293 15.6705 56.2861 15.5341 56.2861 15.375C56.2861 15.2103 56.2293 15.1023 56.1157 15.0512C56.002 15 55.8657 14.9745 55.7066 14.9745H53.2861C52.8827 14.9745 52.5049 14.8978 52.1526 14.7444C51.8003 14.5909 51.4935 14.3836 51.2321 14.1222C50.9708 13.8551 50.7634 13.5455 50.61 13.1932C50.4623 12.8409 50.3884 12.4631 50.3884 12.0597C50.3884 11.6563 50.4623 11.2784 50.61 10.9262C50.7634 10.5739 50.9708 10.2671 51.2321 10.0057C51.4935 9.74434 51.8003 9.5398 52.1526 9.39207C52.5049 9.23866 52.8827 9.16195 53.2861 9.16195H57.9992V11.4801H53.2861C53.127 11.4801 52.9907 11.537 52.877 11.6506C52.7634 11.7642 52.7066 11.9006 52.7066 12.0597C52.7066 12.2245 52.7634 12.3665 52.877 12.4858C52.9907 12.5995 53.127 12.6563 53.2861 12.6563H55.7066C56.1043 12.6563 56.4793 12.7245 56.8316 12.8608C57.1839 12.9915 57.4907 13.1762 57.752 13.4148C58.0134 13.6534 58.2208 13.9404 58.3742 14.2756C58.5276 14.6108 58.6043 14.9773 58.6043 15.375C58.6043 15.7784 58.5276 16.1563 58.3742 16.5086C58.2208 16.8552 58.0134 17.162 57.752 17.429C57.4907 17.6904 57.1839 17.8978 56.8316 18.0512C56.4793 18.1989 56.1043 18.2728 55.7066 18.2728Z" fill="#4D5F7A"/>
<path d="M62.1754 18.2728H59.8486V5.51422H62.1754V9.54548C62.4538 9.33525 62.7407 9.18752 63.0361 9.1023C63.3316 9.01139 63.6327 8.96593 63.9396 8.96593C64.5021 8.96593 65.0305 9.07389 65.5248 9.2898C66.0191 9.50002 66.4481 9.79264 66.8117 10.1676C67.181 10.537 67.4708 10.9716 67.681 11.4716C67.897 11.9659 68.0049 12.4943 68.0049 13.0569V18.2728H65.6612V13.0569H65.6782C65.6782 12.8182 65.6327 12.5938 65.5418 12.3836C65.4509 12.1676 65.3259 11.9801 65.1668 11.8211C65.0077 11.662 64.8231 11.537 64.6129 11.4461C64.4026 11.3551 64.1782 11.3097 63.9396 11.3097C63.6952 11.3097 63.4651 11.3551 63.2492 11.4461C63.0333 11.537 62.8458 11.662 62.6867 11.8211C62.5276 11.9801 62.4026 12.1676 62.3117 12.3836C62.2208 12.5938 62.1754 12.8182 62.1754 13.0569V18.2728Z" fill="#4D5F7A"/>
<path d="M73.2975 16.0398C73.3884 16.0682 73.4794 16.0881 73.5703 16.0995C73.6612 16.1052 73.7521 16.108 73.843 16.108C74.0703 16.108 74.289 16.0767 74.4992 16.0142C74.7095 15.9517 74.9055 15.8637 75.0873 15.75C75.2748 15.6307 75.4396 15.4887 75.5816 15.3239C75.7294 15.1534 75.8487 14.9659 75.9396 14.7614L77.6441 16.4745C77.4282 16.7813 77.1782 17.0569 76.8941 17.3012C76.6157 17.5455 76.3117 17.7529 75.9822 17.9233C75.6583 18.0938 75.3146 18.2216 74.951 18.3069C74.593 18.3978 74.2237 18.4432 73.843 18.4432C73.2009 18.4432 72.5958 18.3239 72.0276 18.0853C71.4651 17.8466 70.9708 17.5142 70.5447 17.0881C70.1242 16.662 69.7918 16.1563 69.5475 15.5711C69.3032 14.9802 69.181 14.3324 69.181 13.6279C69.181 12.9063 69.3032 12.2472 69.5475 11.6506C69.7918 11.054 70.1242 10.5455 70.5447 10.125C70.9708 9.70457 71.4651 9.37786 72.0276 9.14491C72.5958 8.91195 73.2009 8.79548 73.843 8.79548C74.2237 8.79548 74.5958 8.84093 74.9595 8.93184C75.3231 9.02275 75.6669 9.15343 75.9907 9.32389C76.3203 9.49434 76.6271 9.70457 76.9112 9.95457C77.1953 10.1989 77.4453 10.4745 77.6612 10.7813L73.2975 16.0398ZM74.4907 11.2415C74.3828 11.2017 74.2748 11.1762 74.1669 11.1648C74.0646 11.1534 73.9566 11.1478 73.843 11.1478C73.5248 11.1478 73.2237 11.2074 72.9396 11.3267C72.6612 11.4404 72.4169 11.6051 72.2066 11.8211C72.0021 12.037 71.8401 12.2983 71.7208 12.6051C71.6015 12.9063 71.5419 13.2472 71.5419 13.6279C71.5419 13.7131 71.5447 13.8097 71.5504 13.9176C71.5617 14.0256 71.5759 14.1364 71.593 14.25C71.6157 14.358 71.6413 14.4631 71.6697 14.5654C71.6981 14.6677 71.735 14.7586 71.7805 14.8381L74.4907 11.2415Z" fill="#4D5F7A"/>
<path d="M81.1811 18.2728H78.8373V5.51422H81.1811V18.2728Z" fill="#4D5F7A"/>
<path d="M85.3061 21.7501H82.9623V9.14491H83.5248L84.4538 10.2443C84.664 10.0455 84.8942 9.85798 85.1442 9.68184C85.3942 9.50571 85.6527 9.35514 85.9197 9.23014C86.1925 9.09945 86.4737 8.99718 86.7635 8.92332C87.0533 8.84945 87.3459 8.81252 87.6413 8.81252C88.2834 8.81252 88.8856 8.929 89.4481 9.16195C90.0163 9.38923 90.5106 9.71309 90.9311 10.1335C91.3572 10.554 91.6925 11.0625 91.9368 11.6591C92.1811 12.25 92.3033 12.9063 92.3033 13.6279C92.3033 14.3779 92.1811 15.054 91.9368 15.6563C91.6925 16.2529 91.3572 16.7614 90.9311 17.1819C90.5106 17.5966 90.0163 17.9148 89.4481 18.1364C88.8856 18.358 88.2834 18.4688 87.6413 18.4688C87.4368 18.4688 87.2322 18.4461 87.0277 18.4006C86.8288 18.3552 86.63 18.2955 86.4311 18.2216C86.2379 18.1421 86.0447 18.054 85.8515 17.9574C85.664 17.8608 85.4822 17.7614 85.3061 17.6591V21.7501ZM89.968 13.6279C89.968 13.2415 89.9055 12.8949 89.7805 12.5881C89.6612 12.2813 89.4964 12.0228 89.2862 11.8125C89.076 11.5966 88.8288 11.4318 88.5447 11.3182C88.2606 11.2046 87.9595 11.1478 87.6413 11.1478C87.3231 11.1478 87.022 11.2046 86.7379 11.3182C86.4595 11.4318 86.2152 11.5966 86.005 11.8125C85.7947 12.0228 85.6271 12.2813 85.5021 12.5881C85.3828 12.8949 85.3231 13.2415 85.3231 13.6279C85.3231 13.9972 85.3828 14.3353 85.5021 14.6421C85.6271 14.9489 85.7947 15.2103 86.005 15.4262C86.2152 15.6421 86.4595 15.8097 86.7379 15.929C87.022 16.0483 87.3231 16.108 87.6413 16.108C87.9595 16.108 88.2606 16.0483 88.5447 15.929C88.8288 15.8097 89.076 15.6421 89.2862 15.4262C89.4964 15.2103 89.6612 14.9489 89.7805 14.6421C89.9055 14.3353 89.968 13.9972 89.968 13.6279Z" fill="#4D5F7A"/>
<defs>
<clipPath id="clip0_1_1124">
<rect width="24.0711" height="24.0001" fill="white" transform="translate(0.820068)"/>
</clipPath>
</defs>
</svg>
