<svg width="102" height="24" viewBox="0 0 102 24" fill="none" xmlns="http://www.w3.org/2000/svg">
<g clip-path="url(#clip0_1_1122)">
<path fill-rule="evenodd" clip-rule="evenodd" d="M2.4687 22.4667L4.57325 21.26L5.41822 20.7752L6.24778 20.2969L7.54938 19.551L9.61656 18.3707L11.6859 19.551L12.9853 20.2969L13.8148 20.7752L14.662 21.26L16.7225 22.4492L17.349 22.8046L17.9601 23.1534L19.2 23.8642V12.4427L16.7225 11.0189V19.6212L15.0458 18.6559L12.5749 17.243L11.6329 16.6945L10.8564 16.2557V2.0721H8.37884V16.5936L6.65809 17.583L4.18944 19.0069L2.4687 19.9876V11.0364L-6.10352e-05 12.4515V23.8818L1.23098 23.171L1.84876 22.8221L2.4687 22.4667ZM15.0437 16.6857V-0.490405H12.5728V15.2729L15.0437 16.6857ZM6.66036 15.602V4.6324H4.1916V17.0258L6.66036 15.602Z" fill="#4D5F7A"/>
</g>
<path d="M29.6676 17.1001H31.8256L33.8148 10.2529H33.8966L35.8909 17.1001H38.0489L41.0455 6.62733H38.6267L36.8932 13.9194H36.8011L34.8937 6.62733H32.8227L30.9102 13.904H30.8233L29.0898 6.62733H26.671L29.6676 17.1001Z" fill="#4D5F7A"/>
<path d="M42.2305 17.1001H49.3078V15.2745H44.4447V12.7739H48.9243V10.9484H44.4447V8.4529H49.2874V6.62733H42.2305V17.1001Z" fill="#4D5F7A"/>
<path d="M51.0477 17.1001H57.7517V15.2745H53.2619V6.62733H51.0477V17.1001Z" fill="#4D5F7A"/>
<path d="M57.2685 6.62733L61.0883 13.3978V17.1001H63.2872V13.3978L67.1071 6.62733H64.627L62.2389 11.1376H62.1366L59.7486 6.62733H57.2685Z" fill="#4D5F7A"/>
<path d="M68.5785 8.4529H71.7848V17.1001H73.9734V8.4529H77.1797V6.62733H68.5785V8.4529Z" fill="#4D5F7A"/>
<path d="M80.8104 6.62733H78.5962V17.1001H80.8104V6.62733Z" fill="#4D5F7A"/>
<path d="M91.8724 10.2938C91.581 7.87506 89.7503 6.48415 87.3264 6.48415C84.5599 6.48415 82.448 8.43756 82.448 11.8637C82.448 15.2796 84.5241 17.2432 87.3264 17.2432C90.0111 17.2432 91.6321 15.4586 91.8724 13.5307L89.6327 13.5205C89.423 14.6404 88.5435 15.2847 87.3622 15.2847C85.7719 15.2847 84.6929 14.1035 84.6929 11.8637C84.6929 9.68529 85.7565 8.44267 87.3776 8.44267C88.5895 8.44267 89.4639 9.14324 89.6327 10.2938H91.8724Z" fill="#4D5F7A"/>
<path d="M99.1415 9.63926H101.264C101.233 7.77279 99.6989 6.48415 97.367 6.48415C95.071 6.48415 93.3886 7.75233 93.3989 9.6546C93.3937 11.1989 94.4829 12.0836 96.2523 12.508L97.3926 12.7944C98.5329 13.0705 99.167 13.3978 99.1721 14.1035C99.167 14.8705 98.4409 15.3921 97.3159 15.3921C96.1653 15.3921 95.3369 14.8603 95.2653 13.812H93.1227C93.179 16.0773 94.8 17.2484 97.3415 17.2484C99.8983 17.2484 101.402 16.0262 101.407 14.1086C101.402 12.3648 100.087 11.4393 98.267 11.0302L97.3261 10.8052C96.4159 10.5955 95.654 10.258 95.6693 9.50631C95.6693 8.83131 96.2676 8.33529 97.3517 8.33529C98.4102 8.33529 99.0597 8.81597 99.1415 9.63926Z" fill="#4D5F7A"/>
<defs>
<clipPath id="clip0_1_1122">
<rect width="19.2" height="24" fill="white"/>
</clipPath>
</defs>
</svg>
